<svg id="svg" xmlns="http://www.w3.org/2000/svg" xmlns:xlink="http://www.w3.org/1999/xlink" width="400" height="92.73661041819516" viewBox="0, 0, 400,92.73661041819516" version="1.1"><g id="svgg"><path id="path0" d="M9.986 2.518 C 5.942 2.715,3.701 4.087,2.203 7.282 L 1.750 8.250 1.700 44.667 C 1.646 83.942,1.609 82.194,2.544 84.073 C 4.308 87.617,6.422 88.419,13.417 88.198 C 18.509 88.037,19.749 87.451,21.731 84.272 L 22.501 83.036 22.605 68.809 C 22.722 52.858,22.620 54.102,23.968 52.033 C 25.499 49.683,29.237 48.432,32.117 49.307 C 34.150 49.924,35.492 51.221,40.083 57.000 C 40.683 57.754,41.957 59.288,51.902 71.229 C 56.110 76.282,60.392 81.467,61.417 82.750 C 65.920 88.384,66.060 88.435,76.645 88.212 L 81.373 88.112 82.478 87.581 C 84.444 86.635,85.765 85.172,86.395 83.244 C 86.647 82.474,86.666 79.345,86.626 45.078 L 86.583 7.750 86.099 6.763 C 84.486 3.474,81.523 2.206,75.848 2.379 C 70.495 2.542,68.353 3.610,66.749 6.917 L 66.184 8.083 66.080 21.667 C 65.965 36.677,65.986 36.380,64.866 38.246 C 61.988 43.044,55.986 42.862,51.869 37.852 C 51.162 36.992,50.171 35.791,49.667 35.183 C 49.163 34.575,46.299 31.116,43.303 27.497 C 38.283 21.431,35.451 18.038,27.723 8.826 C 23.847 4.206,22.670 3.161,20.760 2.647 C 20.009 2.445,13.183 2.363,9.986 2.518 M124.083 2.522 C 121.735 2.817,119.207 4.669,118.083 6.917 L 117.583 7.917 117.583 45.250 L 117.583 82.583 118.102 83.677 C 118.820 85.192,120.349 86.789,121.775 87.513 L 122.899 88.083 150.491 88.083 L 178.083 88.083 178.905 87.676 C 181.985 86.148,183.009 84.059,183.126 79.065 C 183.248 73.852,182.268 71.655,179.107 70.053 C 177.298 69.136,178.010 69.170,160.640 69.168 C 145.437 69.167,144.474 69.149,143.539 68.858 C 136.537 66.679,136.624 56.981,143.667 54.626 C 144.731 54.270,144.975 54.262,157.583 54.173 L 170.417 54.083 171.530 53.556 C 174.845 51.985,176.004 49.332,175.671 44.082 C 175.439 40.441,174.279 38.587,171.359 37.193 L 170.083 36.583 157.083 36.500 L 144.083 36.417 143.125 36.030 C 136.638 33.410,136.790 24.797,143.372 22.024 L 144.417 21.583 161.083 21.500 L 177.750 21.417 178.871 20.886 C 182.097 19.358,183.167 17.113,183.167 11.875 C 183.167 5.908,181.102 3.028,176.442 2.492 C 174.714 2.293,125.679 2.322,124.083 2.522 M322.707 2.517 C 320.476 2.777,318.607 4.088,316.917 6.579 L 316.250 7.562 316.250 11.822 L 316.250 16.083 316.775 17.192 C 317.468 18.654,318.922 20.110,320.434 20.854 L 321.575 21.417 330.996 21.504 C 342.455 21.610,342.776 21.682,345.001 24.648 C 346.559 26.724,346.406 23.627,346.500 54.920 L 346.583 82.590 347.122 83.684 C 349.039 87.578,351.078 88.413,358.167 88.204 C 363.329 88.052,364.790 87.424,366.451 84.645 C 367.562 82.787,367.500 84.513,367.500 55.246 C 367.500 24.434,367.370 26.446,369.514 24.100 C 371.665 21.746,372.232 21.630,381.833 21.591 C 392.674 21.547,393.545 21.410,395.644 19.428 C 397.511 17.663,397.921 16.224,397.903 11.493 L 397.890 7.903 397.337 6.866 C 396.049 4.450,393.614 2.781,390.968 2.503 C 389.047 2.300,324.453 2.314,322.707 2.517 M223.417 4.148 C 221.307 4.763,219.941 5.753,216.876 8.892 C 213.537 12.310,212.499 14.266,212.501 17.134 C 212.504 20.900,212.750 21.215,226.505 35.083 C 234.944 43.591,234.897 43.532,234.876 45.525 C 234.852 47.818,234.979 47.664,223.948 58.829 C 212.908 70.003,213.253 69.580,212.710 72.640 C 212.062 76.298,212.775 77.853,217.192 82.410 C 222.136 87.511,225.688 88.419,230.833 85.898 L 232.417 85.123 239.333 78.268 C 253.144 64.579,252.881 64.806,255.503 64.324 C 258.761 63.725,258.855 63.795,270.500 75.483 C 280.020 85.039,280.467 85.462,281.680 86.052 C 285.372 87.851,287.636 87.102,292.269 82.552 C 296.104 78.785,296.810 77.312,296.393 73.946 C 296.069 71.328,296.124 71.392,282.672 58.000 C 274.375 49.740,274.288 49.622,274.287 46.583 C 274.286 43.513,274.002 43.861,286.984 30.970 C 299.173 18.865,298.906 19.173,299.350 16.750 C 299.899 13.755,298.879 11.795,294.657 7.740 C 289.749 3.026,286.399 2.825,281.833 6.972 C 279.608 8.992,266.599 21.597,264.493 23.773 C 260.385 28.018,258.597 29.033,256.051 28.570 C 254.265 28.245,255.114 29.016,239.000 13.083 C 231.414 5.583,230.891 5.133,228.717 4.239 C 227.492 3.735,224.983 3.692,223.417 4.148 M227.088 7.352 C 228.344 7.668,237.889 16.920,254.420 33.844 C 264.992 44.667,264.440 43.976,264.287 46.200 C 264.172 47.877,264.335 47.664,260.057 51.762 C 258.055 53.680,250.326 61.325,242.881 68.750 C 227.571 84.020,228.272 83.417,225.847 83.417 C 223.539 83.417,221.577 82.020,217.731 77.637 C 215.803 75.441,215.575 74.948,215.861 73.601 C 216.257 71.735,216.344 71.634,224.662 63.250 C 238.603 49.198,238.118 49.792,238.532 46.291 C 239.033 42.049,239.712 42.940,223.758 26.873 C 216.361 19.423,216.263 19.312,215.918 18.003 C 215.420 16.118,217.229 13.364,221.372 9.702 C 223.861 7.502,225.313 6.905,227.088 7.352 " stroke="none" fill="#FFFFFF" fill-rule="evenodd"></path><path id="path1" d="M0.000 46.333 L 0.000 92.667 200.000 92.667 L 400.000 92.667 400.000 46.333 L 400.000 0.000 200.000 0.000 L 0.000 0.000 0.000 46.333 M81.499 2.496 C 84.706 3.599,86.663 5.844,87.025 8.833 C 87.333 11.376,87.117 82.470,86.799 83.367 C 86.138 85.230,84.471 87.075,82.644 87.967 C 81.546 88.503,76.671 88.752,70.667 88.579 L 67.083 88.476 66.177 87.958 C 65.679 87.673,64.726 86.922,64.059 86.289 C 62.908 85.195,62.512 84.737,59.989 81.573 C 59.399 80.834,55.548 76.184,51.430 71.239 C 41.794 59.669,42.461 60.471,40.917 58.585 C 40.183 57.688,39.321 56.638,39.000 56.250 C 38.679 55.861,37.779 54.766,37.000 53.815 C 36.221 52.864,35.270 51.773,34.886 51.390 C 31.461 47.969,25.720 49.015,23.624 53.442 L 23.083 54.583 23.000 68.833 L 22.917 83.083 22.111 84.370 C 21.119 85.954,19.678 87.315,18.295 87.974 L 17.250 88.472 13.000 88.572 C 6.210 88.731,4.034 87.873,2.252 84.333 C 1.264 82.371,1.311 84.448,1.366 44.750 L 1.417 8.083 1.953 6.950 C 2.582 5.622,4.668 3.437,5.851 2.866 C 7.115 2.257,8.563 2.151,14.921 2.202 L 20.925 2.250 22.087 2.819 C 23.760 3.636,25.990 5.993,31.500 12.763 C 31.821 13.157,34.558 16.437,37.583 20.052 C 40.608 23.667,44.058 27.808,45.250 29.254 C 46.442 30.701,47.679 32.201,48.000 32.587 C 48.321 32.973,49.221 34.059,50.000 35.000 C 50.779 35.941,51.703 37.049,52.053 37.462 C 52.403 37.875,52.809 38.395,52.954 38.617 C 53.381 39.269,55.253 40.504,56.462 40.931 C 60.357 42.305,64.903 39.686,65.490 35.731 C 65.570 35.191,65.679 28.723,65.732 21.356 L 65.828 7.962 66.414 6.745 C 67.717 4.035,69.761 2.627,73.061 2.166 C 75.123 1.878,80.290 2.080,81.499 2.496 M178.301 2.488 C 180.762 3.388,182.156 4.845,183.184 7.592 C 183.609 8.728,183.713 14.745,183.328 15.938 C 182.496 18.517,181.299 20.092,179.470 21.015 C 177.486 22.017,177.913 21.994,160.417 22.001 L 144.417 22.008 143.452 22.404 C 137.474 24.863,137.068 32.786,142.784 35.464 L 143.750 35.917 156.750 36.007 C 171.207 36.108,170.226 36.028,172.338 37.266 C 175.017 38.836,176.167 41.234,176.166 45.250 C 176.166 49.926,174.613 52.759,171.325 54.083 L 170.083 54.583 157.167 54.667 L 144.250 54.750 143.333 55.157 C 137.352 57.812,137.015 65.265,142.749 68.099 L 144.066 68.750 160.741 68.836 C 172.256 68.895,177.573 68.979,177.921 69.105 C 180.581 70.072,182.487 71.971,183.259 74.424 C 183.699 75.821,183.533 82.185,183.016 83.750 C 182.562 85.124,180.576 87.273,179.083 88.007 L 178.250 88.417 150.491 88.417 L 122.733 88.417 121.623 87.853 C 120.143 87.102,118.513 85.416,117.789 83.889 L 117.250 82.750 117.203 45.583 C 117.167 17.096,117.203 8.246,117.356 7.687 C 117.905 5.679,120.343 3.240,122.569 2.471 C 123.951 1.993,176.991 2.009,178.301 2.488 M392.888 2.490 C 397.101 3.940,399.127 8.311,398.343 14.263 C 397.901 17.622,396.687 19.622,394.264 20.983 C 392.856 21.774,391.252 21.905,382.750 21.921 C 372.186 21.940,371.140 22.188,369.149 25.134 C 367.907 26.974,368.000 24.602,368.000 54.329 C 368.000 84.360,368.066 82.866,366.636 85.023 C 364.795 87.799,363.471 88.379,358.583 88.550 C 350.956 88.816,348.814 87.964,346.793 83.859 L 346.250 82.757 346.167 55.087 C 346.079 25.813,346.113 27.075,345.358 25.833 C 343.115 22.144,342.605 22.000,331.766 21.999 C 326.992 21.998,322.811 21.926,322.250 21.835 C 319.304 21.353,316.721 18.903,315.909 15.821 C 315.591 14.615,315.655 8.631,315.998 7.500 C 316.476 5.924,319.296 3.108,320.986 2.518 C 322.445 2.009,391.411 1.982,392.888 2.490 M227.333 3.502 C 228.041 3.610,228.963 3.941,229.994 4.455 L 231.572 5.242 242.623 16.163 C 255.269 28.661,254.668 28.167,257.232 28.167 L 258.769 28.167 260.009 27.299 C 260.730 26.795,263.381 24.333,266.334 21.424 C 283.924 4.101,284.250 3.833,287.798 3.833 C 290.623 3.833,291.573 4.320,294.909 7.476 C 299.428 11.749,300.489 14.059,299.528 17.524 C 299.010 19.392,298.665 19.775,287.327 31.083 C 274.625 43.753,274.656 43.715,274.641 46.450 C 274.624 49.481,274.350 49.133,285.806 60.627 C 296.948 71.804,296.593 71.358,296.784 74.419 C 296.994 77.794,296.373 79.016,292.520 82.802 C 287.705 87.533,285.436 88.275,281.530 86.397 C 280.314 85.811,279.908 85.429,270.342 75.837 C 259.669 65.134,259.758 65.211,257.563 64.752 C 254.194 64.047,253.950 64.234,239.583 78.512 C 231.608 86.438,231.089 86.811,227.207 87.426 C 223.389 88.031,221.170 87.007,216.996 82.715 C 212.281 77.866,211.558 76.172,212.427 72.000 C 212.979 69.350,212.740 69.636,223.516 58.759 C 237.777 44.365,237.540 46.695,225.930 35.000 C 212.311 21.281,212.173 21.102,212.168 17.167 C 212.165 14.233,213.046 12.400,215.961 9.275 C 220.532 4.373,223.428 2.903,227.333 3.502 M225.231 7.655 C 222.956 8.213,216.541 14.586,216.241 16.584 C 215.948 18.541,215.542 18.049,226.936 29.561 C 239.397 42.151,238.905 41.506,238.900 45.250 C 238.898 47.319,238.873 47.474,238.356 48.695 C 237.428 50.882,237.027 51.331,226.989 61.417 C 216.694 71.762,216.508 71.974,216.249 73.698 C 216.056 74.986,216.251 75.398,218.009 77.411 C 222.987 83.111,225.767 84.310,228.842 82.085 C 229.158 81.856,235.379 75.720,242.667 68.448 C 249.954 61.177,257.626 53.590,259.715 51.590 C 263.987 47.499,263.781 47.757,263.928 46.316 C 264.146 44.174,264.781 44.958,253.428 33.356 C 247.810 27.614,242.059 21.799,240.648 20.432 C 239.237 19.065,235.945 15.835,233.332 13.254 C 227.762 7.753,226.993 7.222,225.231 7.655 " stroke="none" fill="transparent" fill-rule="evenodd"></path><path id="path2" d="M75.383 2.124 C 76.190 2.155,77.465 2.155,78.217 2.124 C 78.968 2.093,78.308 2.068,76.750 2.068 C 75.192 2.068,74.577 2.094,75.383 2.124 M7.502 2.357 C 5.491 2.690,2.991 4.760,1.953 6.950 L 1.417 8.083 1.366 44.750 C 1.311 84.448,1.264 82.371,2.252 84.333 C 4.034 87.873,6.210 88.731,13.000 88.572 L 17.250 88.472 18.295 87.974 C 19.678 87.315,21.119 85.954,22.111 84.370 L 22.917 83.083 23.000 68.833 L 23.083 54.583 23.624 53.442 C 25.720 49.015,31.461 47.969,34.886 51.390 C 35.270 51.773,36.221 52.864,37.000 53.815 C 37.779 54.766,38.679 55.861,39.000 56.250 C 39.321 56.638,40.183 57.688,40.917 58.585 C 42.461 60.471,41.794 59.669,51.430 71.239 C 55.548 76.184,59.399 80.834,59.989 81.573 C 62.512 84.737,62.908 85.195,64.059 86.289 C 64.726 86.922,65.679 87.673,66.177 87.958 L 67.083 88.476 70.667 88.579 C 81.403 88.889,83.851 88.323,85.946 85.049 C 87.180 83.120,87.072 86.671,87.127 46.333 C 87.185 3.775,87.358 7.053,84.922 4.571 C 83.623 3.249,81.301 2.122,80.014 2.189 L 79.583 2.212 80.000 2.282 C 83.579 2.881,86.374 5.468,86.827 8.602 C 87.036 10.044,87.052 80.429,86.844 82.040 C 86.539 84.408,84.988 86.569,82.781 87.701 L 81.750 88.231 77.105 88.381 C 74.397 88.468,71.303 88.470,69.688 88.384 L 66.917 88.237 66.000 87.639 C 64.902 86.923,62.557 84.564,61.223 82.833 C 60.693 82.146,56.362 76.896,51.598 71.167 C 46.834 65.438,42.504 60.225,41.975 59.583 C 41.119 58.544,39.687 56.814,36.032 52.403 C 32.176 47.749,25.972 48.205,23.448 53.329 L 22.917 54.409 22.833 68.666 L 22.750 82.924 22.047 84.107 C 19.976 87.592,18.530 88.273,12.917 88.406 C 6.316 88.562,4.207 87.730,2.386 84.250 C 1.447 82.455,1.481 84.072,1.534 44.750 L 1.583 8.250 1.980 7.265 C 3.191 4.260,5.895 2.579,10.000 2.280 C 10.436 2.248,10.262 2.221,9.583 2.215 C 8.942 2.210,8.005 2.274,7.502 2.357 M14.788 2.287 C 15.084 2.324,15.609 2.324,15.955 2.288 C 16.300 2.252,16.058 2.222,15.417 2.221 C 14.775 2.221,14.492 2.250,14.788 2.287 M20.225 2.328 C 22.092 2.672,23.791 3.867,25.800 6.250 C 26.572 7.167,28.340 9.263,29.727 10.908 C 31.115 12.554,32.438 14.139,32.667 14.432 C 32.896 14.724,34.056 16.115,35.245 17.523 C 38.122 20.931,39.655 22.767,42.250 25.913 C 43.442 27.358,45.242 29.535,46.250 30.752 C 47.258 31.968,49.058 34.153,50.248 35.607 C 52.843 38.774,54.049 40.015,55.013 40.507 C 59.000 42.540,63.029 41.335,65.081 37.494 L 65.746 36.250 65.872 22.250 C 66.009 6.890,65.952 7.689,67.035 5.963 C 68.246 4.033,70.039 2.886,72.583 2.413 C 73.225 2.294,73.530 2.190,73.261 2.182 C 70.641 2.101,67.707 4.057,66.414 6.745 L 65.828 7.962 65.732 21.356 C 65.679 28.723,65.570 35.191,65.490 35.731 C 64.903 39.686,60.357 42.305,56.462 40.931 C 55.253 40.504,53.381 39.269,52.954 38.617 C 52.809 38.395,52.403 37.875,52.053 37.462 C 51.703 37.049,50.779 35.941,50.000 35.000 C 49.221 34.059,48.321 32.973,48.000 32.587 C 47.679 32.201,46.442 30.701,45.250 29.254 C 44.058 27.808,40.608 23.667,37.583 20.052 C 34.558 16.437,31.821 13.157,31.500 12.763 C 24.580 4.260,22.594 2.407,20.215 2.237 L 19.417 2.180 20.225 2.328 M122.569 2.471 C 120.343 3.240,117.905 5.679,117.356 7.687 C 117.203 8.246,117.167 17.096,117.203 45.583 L 117.250 82.750 117.789 83.889 C 118.513 85.416,120.143 87.102,121.623 87.853 L 122.733 88.417 150.491 88.417 L 178.250 88.417 179.083 88.007 C 180.576 87.273,182.562 85.124,183.016 83.750 C 183.533 82.185,183.699 75.821,183.259 74.424 C 182.487 71.971,180.581 70.072,177.921 69.105 C 177.573 68.979,172.256 68.895,160.741 68.836 L 144.066 68.750 142.749 68.099 C 137.015 65.265,137.352 57.812,143.333 55.157 L 144.250 54.750 157.167 54.667 L 170.083 54.583 171.325 54.083 C 174.613 52.759,176.166 49.926,176.166 45.250 C 176.167 41.234,175.017 38.836,172.338 37.266 C 170.226 36.028,171.207 36.108,156.750 36.007 L 143.750 35.917 142.784 35.464 C 137.068 32.786,137.474 24.863,143.452 22.404 L 144.417 22.008 160.417 22.001 C 177.913 21.994,177.486 22.017,179.470 21.015 C 181.299 20.092,182.496 18.517,183.328 15.938 C 183.713 14.745,183.609 8.728,183.184 7.592 C 181.957 4.312,179.305 2.112,176.669 2.189 L 175.917 2.210 176.833 2.338 C 181.366 2.968,183.333 5.848,183.333 11.853 C 183.333 17.059,182.288 19.442,179.365 20.892 C 177.801 21.669,177.918 21.664,160.833 21.714 C 144.786 21.762,144.571 21.767,143.610 22.114 C 137.864 24.188,136.707 31.451,141.571 34.912 C 143.392 36.208,142.910 36.166,156.155 36.172 C 171.091 36.178,171.176 36.190,173.658 38.587 C 175.320 40.191,175.658 41.037,175.881 44.154 C 176.277 49.669,174.761 52.608,170.750 54.106 C 169.971 54.397,169.081 54.422,157.000 54.500 L 144.083 54.583 142.815 55.203 C 137.402 57.849,136.963 64.923,142.023 67.951 C 143.830 69.032,143.249 69.000,160.910 69.002 C 177.972 69.004,177.500 68.983,179.115 69.807 C 182.436 71.501,183.393 73.591,183.295 78.936 C 183.199 84.230,182.294 86.086,178.935 87.884 L 178.250 88.250 150.500 88.250 L 122.750 88.250 121.762 87.750 C 120.386 87.053,118.671 85.306,117.973 83.888 L 117.417 82.757 117.417 45.333 L 117.417 7.910 117.958 6.809 C 119.041 4.611,121.603 2.670,123.833 2.359 C 124.814 2.222,124.846 2.206,124.167 2.193 C 123.754 2.184,123.035 2.309,122.569 2.471 M320.986 2.518 C 319.296 3.108,316.476 5.924,315.998 7.500 C 315.655 8.631,315.591 14.615,315.909 15.821 C 316.721 18.903,319.304 21.353,322.250 21.835 C 322.811 21.926,326.992 21.998,331.766 21.999 C 342.605 22.000,343.115 22.144,345.358 25.833 C 346.113 27.075,346.079 25.813,346.167 55.087 L 346.250 82.757 346.793 83.859 C 348.814 87.964,350.956 88.816,358.583 88.550 C 363.471 88.379,364.795 87.799,366.636 85.023 C 368.066 82.866,368.000 84.360,368.000 54.329 C 368.000 28.497,368.009 27.692,368.321 26.786 C 369.048 24.672,371.455 22.364,372.984 22.314 C 373.314 22.303,373.808 22.233,374.083 22.158 C 374.405 22.070,374.167 22.053,373.417 22.109 C 371.573 22.246,369.359 24.019,368.348 26.167 L 367.917 27.083 367.832 54.583 C 367.739 84.964,367.821 82.736,366.731 84.599 C 365.025 87.516,363.256 88.272,357.833 88.401 C 351.278 88.557,349.730 88.005,347.434 84.692 C 346.252 82.986,346.333 85.182,346.333 55.041 C 346.333 24.840,346.422 27.086,345.153 25.186 C 342.940 21.872,342.182 21.696,330.038 21.679 C 321.128 21.665,321.104 21.663,319.472 20.536 C 316.488 18.477,315.696 16.368,315.900 11.029 C 316.023 7.801,316.143 7.302,317.109 5.994 C 318.706 3.833,320.449 2.637,322.417 2.352 C 323.364 2.215,323.377 2.207,322.667 2.200 C 322.254 2.196,321.498 2.339,320.986 2.518 M391.433 2.333 C 393.733 2.670,396.070 4.305,397.349 6.472 C 399.082 9.410,398.425 16.737,396.207 19.192 C 394.072 21.555,393.301 21.700,382.639 21.729 C 378.361 21.740,374.824 21.787,374.778 21.833 C 374.574 22.038,390.296 21.898,391.833 21.682 C 396.738 20.993,398.877 17.186,398.334 10.115 C 397.991 5.645,394.811 2.079,391.266 2.187 C 390.587 2.208,390.588 2.209,391.433 2.333 M224.221 3.580 C 221.554 4.064,219.499 5.481,215.961 9.275 C 213.046 12.400,212.165 14.233,212.168 17.167 C 212.173 21.102,212.311 21.281,225.930 35.000 C 234.402 43.534,234.500 43.654,234.500 45.499 C 234.500 47.672,234.496 47.676,223.516 58.759 C 212.740 69.636,212.979 69.350,212.427 72.000 C 211.558 76.172,212.281 77.866,216.996 82.715 C 221.170 87.007,223.389 88.031,227.207 87.426 C 231.089 86.811,231.608 86.438,239.583 78.512 C 253.950 64.234,254.194 64.047,257.563 64.752 C 259.758 65.211,259.669 65.134,270.342 75.837 C 279.908 85.429,280.314 85.811,281.530 86.397 C 285.436 88.275,287.705 87.533,292.520 82.802 C 296.373 79.016,296.994 77.794,296.784 74.419 C 296.593 71.358,296.948 71.804,285.806 60.627 C 274.350 49.133,274.624 49.481,274.641 46.450 C 274.656 43.715,274.625 43.753,287.327 31.083 C 298.665 19.775,299.010 19.392,299.528 17.524 C 300.489 14.059,299.428 11.749,294.909 7.476 C 291.573 4.320,290.623 3.833,287.798 3.833 C 284.250 3.833,283.924 4.101,266.334 21.424 C 263.381 24.333,260.730 26.795,260.009 27.299 L 258.769 28.167 257.232 28.167 C 254.668 28.167,255.269 28.661,242.623 16.163 L 231.572 5.242 229.994 4.455 C 227.808 3.364,226.502 3.166,224.221 3.580 M228.417 3.925 C 230.602 4.527,231.454 5.263,241.417 15.163 C 255.806 29.462,254.453 28.333,257.209 28.333 L 258.879 28.333 260.227 27.375 C 261.108 26.749,264.321 23.706,269.496 18.597 C 281.835 6.416,283.555 4.891,285.655 4.268 C 289.082 3.252,291.361 4.177,295.441 8.238 C 299.228 12.007,300.159 14.010,299.503 16.983 C 299.004 19.246,299.347 18.854,286.921 31.333 C 274.387 43.921,274.859 43.378,274.491 45.637 C 273.949 48.967,273.941 48.956,285.509 60.583 C 296.980 72.113,296.441 71.437,296.613 74.544 C 296.794 77.817,296.038 79.229,292.042 83.073 C 287.693 87.258,285.460 87.965,281.793 86.317 C 280.621 85.790,280.265 85.457,270.500 75.737 C 258.714 64.005,258.645 63.953,255.542 64.520 C 252.992 64.985,253.398 64.637,240.583 77.344 C 231.208 86.641,230.943 86.825,226.167 87.388 C 223.102 87.749,219.823 85.801,215.699 81.169 C 212.425 77.491,211.829 75.763,212.589 72.136 C 213.187 69.279,212.464 70.113,227.512 54.917 C 234.434 47.926,234.670 47.616,234.663 45.515 C 234.656 43.412,235.236 44.099,223.309 32.055 C 213.620 22.271,213.301 21.896,212.604 19.474 C 211.673 16.238,212.693 13.117,215.790 9.726 C 220.764 4.278,224.111 2.741,228.417 3.925 M225.035 7.522 C 223.564 7.946,221.266 9.843,218.503 12.913 C 215.861 15.850,215.472 17.007,216.478 18.947 C 216.663 19.304,221.330 24.155,227.112 30.000 C 239.325 42.346,239.031 41.949,238.780 45.736 C 238.541 49.345,238.234 49.779,230.178 57.917 C 215.054 73.194,216.101 71.980,216.089 74.263 L 216.083 75.443 217.276 76.847 C 222.269 82.724,225.111 84.247,228.167 82.681 C 229.128 82.188,230.985 80.396,244.667 66.767 C 253.146 58.320,260.922 50.636,261.947 49.692 C 264.242 47.578,264.750 46.052,263.833 44.030 C 263.373 43.016,232.668 11.966,228.965 8.770 C 227.480 7.488,226.372 7.136,225.035 7.522 M227.832 8.130 C 228.243 8.367,230.718 10.673,233.332 13.254 C 235.945 15.835,239.237 19.065,240.648 20.432 C 242.059 21.799,247.810 27.614,253.428 33.356 C 264.781 44.958,264.146 44.174,263.928 46.316 C 263.781 47.757,263.987 47.499,259.715 51.590 C 257.626 53.590,249.954 61.177,242.667 68.448 C 235.379 75.720,229.158 81.856,228.842 82.085 C 225.767 84.310,222.987 83.111,218.009 77.411 C 216.251 75.398,216.056 74.986,216.249 73.698 C 216.508 71.974,216.694 71.762,226.989 61.417 C 237.027 51.331,237.428 50.882,238.356 48.695 C 238.873 47.474,238.898 47.319,238.900 45.250 C 238.905 41.506,239.397 42.151,226.936 29.561 C 213.710 16.198,214.219 17.506,219.983 11.678 C 224.035 7.581,225.628 6.860,227.832 8.130 " stroke="none" fill="#000000" fill-rule="evenodd"></path><path id="path3" d="M10.000 2.283 C 5.923 2.564,3.191 4.261,1.980 7.265 L 1.583 8.250 1.534 44.750 C 1.481 84.072,1.447 82.455,2.386 84.250 C 4.207 87.730,6.316 88.562,12.917 88.406 C 18.530 88.273,19.976 87.592,22.047 84.107 L 22.750 82.924 22.833 68.666 L 22.917 54.409 23.448 53.329 C 25.972 48.205,32.176 47.749,36.032 52.403 C 39.687 56.814,41.119 58.544,41.975 59.583 C 42.504 60.225,46.834 65.438,51.598 71.167 C 56.362 76.896,60.693 82.146,61.223 82.833 C 62.557 84.564,64.902 86.923,66.000 87.639 L 66.917 88.237 69.688 88.384 C 71.303 88.470,74.397 88.468,77.105 88.381 L 81.750 88.231 82.781 87.701 C 84.988 86.569,86.539 84.408,86.844 82.040 C 87.052 80.429,87.036 10.044,86.827 8.602 C 86.232 4.481,83.064 2.348,77.333 2.209 C 71.505 2.067,68.879 3.024,67.035 5.963 C 65.952 7.689,66.009 6.890,65.872 22.250 L 65.746 36.250 65.081 37.494 C 63.029 41.335,59.000 42.540,55.013 40.507 C 54.049 40.015,52.843 38.774,50.248 35.607 C 49.058 34.153,47.258 31.968,46.250 30.752 C 45.242 29.535,43.442 27.358,42.250 25.913 C 39.704 22.827,38.191 21.013,35.245 17.520 C 34.056 16.111,32.897 14.723,32.669 14.437 C 32.441 14.151,31.245 12.717,30.011 11.250 C 28.777 9.783,27.171 7.871,26.441 7.000 C 24.088 4.191,23.057 3.318,21.259 2.613 C 20.454 2.297,12.975 2.078,10.000 2.283 M123.833 2.357 C 121.599 2.673,119.040 4.613,117.958 6.809 L 117.417 7.910 117.417 45.333 L 117.417 82.757 117.973 83.888 C 118.671 85.306,120.386 87.053,121.762 87.750 L 122.750 88.250 150.500 88.250 L 178.250 88.250 178.935 87.884 C 182.294 86.086,183.199 84.230,183.295 78.936 C 183.393 73.591,182.436 71.501,179.115 69.807 C 177.500 68.983,177.972 69.004,160.910 69.002 C 143.249 69.000,143.830 69.032,142.023 67.951 C 136.963 64.923,137.402 57.849,142.815 55.203 L 144.083 54.583 157.000 54.500 C 171.041 54.409,170.271 54.460,172.177 53.493 C 176.592 51.252,177.483 42.280,173.658 38.587 C 171.176 36.190,171.091 36.178,156.155 36.172 C 142.910 36.166,143.392 36.208,141.571 34.912 C 136.707 31.451,137.864 24.188,143.610 22.114 C 144.571 21.767,144.786 21.762,160.833 21.714 C 177.918 21.664,177.801 21.669,179.365 20.892 C 182.288 19.442,183.333 17.059,183.333 11.853 C 183.333 6.372,182.069 4.088,178.225 2.622 L 177.250 2.250 151.083 2.227 C 135.906 2.213,124.462 2.268,123.833 2.357 M322.417 2.351 C 320.446 2.639,318.705 3.834,317.109 5.994 C 316.143 7.302,316.023 7.801,315.900 11.029 C 315.696 16.368,316.488 18.477,319.472 20.536 C 321.104 21.663,321.128 21.665,330.038 21.679 C 342.182 21.696,342.940 21.872,345.153 25.186 C 346.422 27.086,346.333 24.840,346.333 55.041 C 346.333 85.182,346.252 82.986,347.434 84.692 C 349.730 88.005,351.278 88.557,357.833 88.401 C 363.256 88.272,365.025 87.516,366.731 84.599 C 367.821 82.736,367.739 84.964,367.832 54.583 L 367.917 27.083 368.350 26.167 C 368.860 25.088,370.010 23.766,371.195 22.896 C 372.545 21.905,373.683 21.791,382.500 21.764 C 393.811 21.729,395.397 21.303,397.172 17.824 C 398.571 15.081,398.670 8.711,397.349 6.472 C 396.398 4.861,394.308 3.118,392.654 2.557 C 391.657 2.218,324.662 2.022,322.417 2.351 M20.760 2.647 C 22.670 3.161,23.847 4.206,27.723 8.826 C 35.451 18.038,38.283 21.431,43.303 27.497 C 46.299 31.116,49.163 34.575,49.667 35.183 C 50.171 35.791,51.162 36.992,51.869 37.852 C 55.986 42.862,61.988 43.044,64.866 38.246 C 65.986 36.380,65.965 36.677,66.080 21.667 L 66.184 8.083 66.749 6.917 C 68.353 3.610,70.495 2.542,75.848 2.379 C 81.523 2.206,84.486 3.474,86.099 6.763 L 86.583 7.750 86.626 45.078 C 86.666 79.345,86.647 82.474,86.395 83.244 C 85.765 85.172,84.444 86.635,82.478 87.581 L 81.373 88.112 76.645 88.212 C 66.060 88.435,65.920 88.384,61.417 82.750 C 60.392 81.467,56.110 76.282,51.902 71.229 C 41.957 59.288,40.683 57.754,40.083 57.000 C 35.492 51.221,34.150 49.924,32.117 49.307 C 29.237 48.432,25.499 49.683,23.968 52.033 C 22.620 54.102,22.722 52.858,22.605 68.809 L 22.501 83.036 21.731 84.272 C 19.749 87.451,18.509 88.037,13.417 88.198 C 6.422 88.419,4.308 87.617,2.544 84.073 C 1.609 82.194,1.646 83.942,1.700 44.667 L 1.750 8.250 2.203 7.282 C 3.123 5.319,5.395 3.218,7.019 2.829 C 8.777 2.407,19.349 2.267,20.760 2.647 M176.442 2.492 C 181.102 3.028,183.167 5.908,183.167 11.875 C 183.167 17.113,182.097 19.358,178.871 20.886 L 177.750 21.417 161.083 21.500 L 144.417 21.583 143.372 22.024 C 136.790 24.797,136.638 33.410,143.125 36.030 L 144.083 36.417 157.083 36.500 L 170.083 36.583 171.359 37.193 C 174.279 38.587,175.439 40.441,175.671 44.082 C 176.004 49.332,174.845 51.985,171.530 53.556 L 170.417 54.083 157.583 54.173 C 144.975 54.262,144.731 54.270,143.667 54.626 C 136.624 56.981,136.537 66.679,143.539 68.858 C 144.474 69.149,145.437 69.167,160.640 69.168 C 178.010 69.170,177.298 69.136,179.107 70.053 C 182.268 71.655,183.248 73.852,183.126 79.065 C 183.009 84.059,181.985 86.148,178.905 87.676 L 178.083 88.083 150.491 88.083 L 122.899 88.083 121.775 87.513 C 120.349 86.789,118.820 85.192,118.102 83.677 L 117.583 82.583 117.583 45.250 L 117.583 7.917 118.083 6.917 C 119.207 4.669,121.735 2.817,124.083 2.522 C 125.679 2.322,174.714 2.293,176.442 2.492 M390.968 2.503 C 393.614 2.781,396.049 4.450,397.337 6.866 L 397.890 7.903 397.903 11.493 C 397.921 16.224,397.511 17.663,395.644 19.428 C 393.545 21.410,392.674 21.547,381.833 21.591 C 372.232 21.630,371.665 21.746,369.514 24.100 C 367.370 26.446,367.500 24.434,367.500 55.246 C 367.500 84.513,367.562 82.787,366.451 84.645 C 364.790 87.424,363.329 88.052,358.167 88.204 C 351.078 88.413,349.039 87.578,347.122 83.684 L 346.583 82.590 346.500 54.920 C 346.406 23.627,346.559 26.724,345.001 24.648 C 342.776 21.682,342.455 21.610,330.996 21.504 L 321.575 21.417 320.434 20.854 C 318.922 20.110,317.468 18.654,316.775 17.192 L 316.250 16.083 316.250 11.822 L 316.250 7.562 316.917 6.579 C 318.607 4.088,320.476 2.777,322.707 2.517 C 324.453 2.314,389.047 2.300,390.968 2.503 M224.833 3.678 C 221.910 4.005,219.607 5.545,215.790 9.726 C 212.693 13.117,211.673 16.238,212.604 19.474 C 213.301 21.896,213.620 22.271,223.309 32.055 C 235.236 44.099,234.656 43.412,234.663 45.515 C 234.670 47.616,234.434 47.926,227.512 54.917 C 212.464 70.113,213.187 69.279,212.589 72.136 C 211.829 75.763,212.425 77.491,215.699 81.169 C 219.823 85.801,223.102 87.749,226.167 87.388 C 230.943 86.825,231.208 86.641,240.583 77.344 C 253.398 64.637,252.992 64.985,255.542 64.520 C 258.645 63.953,258.714 64.005,270.500 75.737 C 280.265 85.457,280.621 85.790,281.793 86.317 C 285.460 87.965,287.693 87.258,292.042 83.073 C 296.038 79.229,296.794 77.817,296.613 74.544 C 296.441 71.437,296.980 72.113,285.509 60.583 C 273.941 48.956,273.949 48.967,274.491 45.637 C 274.859 43.378,274.387 43.921,286.921 31.333 C 299.347 18.854,299.004 19.246,299.503 16.983 C 300.159 14.010,299.228 12.007,295.441 8.238 C 291.361 4.177,289.082 3.252,285.655 4.268 C 283.555 4.891,281.835 6.416,269.496 18.597 C 264.321 23.706,261.108 26.749,260.227 27.375 L 258.879 28.333 257.209 28.333 C 254.453 28.333,255.806 29.462,241.417 15.163 C 229.663 3.483,229.234 3.186,224.833 3.678 M228.717 4.239 C 230.891 5.133,231.414 5.583,239.000 13.083 C 255.114 29.016,254.265 28.245,256.051 28.570 C 258.597 29.033,260.385 28.018,264.493 23.773 C 266.599 21.597,279.608 8.992,281.833 6.972 C 286.399 2.825,289.749 3.026,294.657 7.740 C 298.879 11.795,299.899 13.755,299.350 16.750 C 298.906 19.173,299.173 18.865,286.984 30.970 C 274.002 43.861,274.286 43.513,274.287 46.583 C 274.288 49.622,274.375 49.740,282.672 58.000 C 296.124 71.392,296.069 71.328,296.393 73.946 C 296.810 77.312,296.104 78.785,292.269 82.552 C 287.636 87.102,285.372 87.851,281.680 86.052 C 280.467 85.462,280.020 85.039,270.500 75.483 C 258.855 63.795,258.761 63.725,255.503 64.324 C 252.881 64.806,253.144 64.579,239.333 78.268 L 232.417 85.123 230.833 85.898 C 225.688 88.419,222.136 87.511,217.192 82.410 C 212.775 77.853,212.062 76.298,212.710 72.640 C 213.253 69.580,212.908 70.003,223.948 58.829 C 234.979 47.664,234.852 47.818,234.876 45.525 C 234.897 43.532,234.944 43.591,226.505 35.083 C 212.750 21.215,212.504 20.900,212.501 17.134 C 212.499 13.802,215.527 9.305,220.078 5.885 C 222.724 3.896,226.249 3.224,228.717 4.239 M224.750 7.398 C 223.036 8.147,221.188 9.696,218.465 12.668 C 215.546 15.854,215.127 17.242,216.452 19.335 C 216.624 19.607,219.912 22.999,223.758 26.873 C 239.712 42.940,239.033 42.049,238.532 46.291 C 238.118 49.792,238.603 49.198,224.662 63.250 C 216.344 71.634,216.257 71.735,215.861 73.601 C 215.575 74.948,215.803 75.441,217.731 77.637 C 221.577 82.020,223.539 83.417,225.847 83.417 C 228.272 83.417,227.571 84.020,242.881 68.750 C 250.326 61.325,258.055 53.680,260.057 51.762 C 262.060 49.844,263.810 48.102,263.948 47.893 C 264.296 47.361,264.434 45.059,264.165 44.246 C 263.815 43.186,233.652 12.601,228.787 8.374 C 227.478 7.237,225.960 6.870,224.750 7.398 M227.064 7.569 C 228.398 7.971,233.647 13.058,253.935 33.613 C 264.062 43.874,264.156 43.983,264.163 45.533 C 264.172 47.459,263.980 47.819,261.947 49.692 C 260.922 50.636,253.146 58.320,244.667 66.767 C 230.985 80.396,229.128 82.188,228.167 82.681 C 225.111 84.247,222.269 82.724,217.276 76.847 L 216.083 75.443 216.089 74.263 C 216.101 71.980,215.054 73.194,230.178 57.917 C 238.234 49.779,238.541 49.345,238.780 45.736 C 239.031 41.949,239.325 42.346,227.112 30.000 C 221.330 24.155,216.663 19.304,216.478 18.947 C 215.472 17.007,215.861 15.850,218.503 12.913 C 222.649 8.305,224.881 6.912,227.064 7.569 " stroke="none" fill="#000000" fill-rule="evenodd"></path></g></svg>
